# xmcd CD database file
#
# Track frame offsets:
#	150
#	7668
#	41198
#	61243
#	90692
#	116025
#	143119
#	166367
#	187284
#	218042
#	224171
#	242245
#
# Disc length: 3394 seconds
#
# Revision: 0
# Processed by: cddbd v1.5.2PL0 Copyright (c) Steve Scherf et al.
# Submitted via: CDex 1.70beta2
#
DISCID=b50d400c
DTITLE=Gandalf  - Sanctuary
DYEAR=2009
DGENRE=New Age
TTITLE0=01 - Alhambra - Prelude
TTITLE1=02 - Under Southern Skies
TTITLE2=03 - Once in A Star-Brightened Night
TTITLE3=04 - Alhambra
TTITLE4=05 - A Place in the Sun
TTITLE5=06 - Citadel - Part 1
TTITLE6=07 - Citadel - Part 2
TTITLE7=08 - The Loveliest Flower in My Garden
TTITLE8=09 - Pilgrims' Road
TTITLE9=10 - A Place in the Sun - Interlude
TTITLE10=11 - When Blossoms Turn to Fruit
TTITLE11=12 - Alhambra - Reflections
EXTD=YEAR: 2009
EXTT0=
EXTT1=
EXTT2=
EXTT3=
EXTT4=
EXTT5=
EXTT6=
EXTT7=
EXTT8=
EXTT9=
EXTT10=
EXTT11=
PLAYORDER=
